HIERARCHY
ROOT Hips
{
	OFFSET 0.00000 0.00000 0.00000
	CHANNELS 6 Xposition Yposition Zposition Zrotation Yrotation Xrotation 
	JOINT LHipJoint
	{
		OFFSET 0 0 0
		CHANNELS 3 Zrotation Yrotation Xrotation
		JOINT LeftUpLeg
		{
			OFFSET 1.37590 -1.78394 0.89329
			CHANNELS 3 Zrotation Yrotation Xrotation
			JOINT LeftLeg
			{
				OFFSET 2.47928 -6.81178 0.00000
				CHANNELS 3 Zrotation Yrotation Xrotation
				JOINT LeftFoot
				{
					OFFSET 2.63345 -7.23535 0.00000
					CHANNELS 3 Zrotation Yrotation Xrotation
					JOINT LeftToeBase
					{
						OFFSET 0.23938 -0.65768 2.27012
						CHANNELS 3 Zrotation Yrotation Xrotation
						End Site
						{
							OFFSET 0.00000 -0.00000 1.18363
						}
					}
				}
			}
		}
	}
	JOINT RHipJoint
	{
		OFFSET 0 0 0
		CHANNELS 3 Zrotation Yrotation Xrotation
		JOINT RightUpLeg
		{
			OFFSET -1.33617 -1.78394 0.89329
			CHANNELS 3 Zrotation Yrotation Xrotation
			JOINT RightLeg
			{
				OFFSET -2.56922 -7.05888 0.00000
				CHANNELS 3 Zrotation Yrotation Xrotation
				JOINT RightFoot
				{
					OFFSET -2.56568 -7.04915 0.00000
					CHANNELS 3 Zrotation Yrotation Xrotation
					JOINT RightToeBase
					{
						OFFSET -0.27533 -0.75646 2.18105
						CHANNELS 3 Zrotation Yrotation Xrotation
						End Site
						{
							OFFSET -0.00000 -0.00000 1.15233
						}
					}
				}
			}
		}
	}
	JOINT LowerBack
	{
		OFFSET 0 0 0
		CHANNELS 3 Zrotation Yrotation Xrotation
		JOINT Spine
		{
			OFFSET 0.06190 2.15152 -0.00935
			CHANNELS 3 Zrotation Yrotation Xrotation
			JOINT Spine1
			{
				OFFSET 0.06334 2.15332 0.00872
				CHANNELS 3 Zrotation Yrotation Xrotation
				JOINT Neck
				{
					OFFSET 0 0 0
					CHANNELS 3 Zrotation Yrotation Xrotation
					JOINT Neck1
					{
						OFFSET -0.04202 1.66908 0.23524
						CHANNELS 3 Zrotation Yrotation Xrotation
						JOINT Head
						{
							OFFSET 0.07510 1.69357 -0.24440
							CHANNELS 3 Zrotation Yrotation Xrotation
							End Site
							{
								OFFSET 0.02556 1.71719 -0.11000
							}
						}
					}
				}
				JOINT LeftShoulder
				{
					OFFSET 0 0 0
					CHANNELS 3 Zrotation Yrotation Xrotation
					JOINT LeftArm
					{
						OFFSET 3.67168 1.26306 -0.41342
						CHANNELS 3 Zrotation Yrotation Xrotation
						JOINT LeftForeArm
						{
							OFFSET 4.68510 -0.00000 -0.00000
							CHANNELS 3 Zrotation Yrotation Xrotation
							JOINT LeftHand
							{
								OFFSET 3.39626 -0.00000 -0.00000
								CHANNELS 3 Zrotation Yrotation Xrotation
								JOINT LeftFingerBase
								{
									OFFSET 0 0 0
									CHANNELS 3 Zrotation Yrotation Xrotation
									JOINT LeftHandIndex1
									{
										OFFSET 0.48608 -0.00000 -0.00000
										CHANNELS 3 Zrotation Yrotation Xrotation
										End Site
										{
											OFFSET 0.39189 -0.00000 -0.00000
										}
									}
								}
								JOINT LThumb
								{
									OFFSET 0 0 0
									CHANNELS 3 Zrotation Yrotation Xrotation
									End Site
									{
										OFFSET 0.39787 -0.00000 0.39787
									}
								}
							}
						}
					}
				}
				JOINT RightShoulder
				{
					OFFSET 0 0 0
					CHANNELS 3 Zrotation Yrotation Xrotation
					JOINT RightArm
					{
						OFFSET -3.04136 1.42992 -0.76390
						CHANNELS 3 Zrotation Yrotation Xrotation
						JOINT RightForeArm
						{
							OFFSET -5.55576 -0.00000 -0.00000
							CHANNELS 3 Zrotation Yrotation Xrotation
							JOINT RightHand
							{
								OFFSET -3.32774 -0.00000 -0.00000
								CHANNELS 3 Zrotation Yrotation Xrotation
								JOINT RightFingerBase
								{
									OFFSET 0 0 0
									CHANNELS 3 Zrotation Yrotation Xrotation
									JOINT RightHandIndex1
									{
										OFFSET -0.50763 -0.00000 -0.00000
										CHANNELS 3 Zrotation Yrotation Xrotation
										End Site
										{
											OFFSET -0.40926 -0.00000 -0.00000
										}
									}
								}
								JOINT RThumb
								{
									OFFSET 0 0 0
									CHANNELS 3 Zrotation Yrotation Xrotation
									End Site
									{
										OFFSET -0.41551 -0.00000 0.41551
									}
								}
							}
						}
					}
				}
			}
		}
	}
}
MOTION
Frames: 15
Frame Time: 0.04
0.00 0.00 0.00 -400.0230 -74.6335 405.5130 0.0000 0.0000 0.0000 -0.6425 -12.9253 -20.5290 4.7565 13.1042 39.7597 0.2917 -5.6373 -9.7969 0.6556 -5.1789 -14.4195 0.0000 0.0000 0.0000 37.4876 -4.6008 -6.9322 -0.5540 -4.7679 13.2479 -0.2760 -7.7975 -15.6812 -0.9377 -6.1678 17.2721 11.2971 4.0055 2.2764 -3.1929 5.7939 -5.3689 -10.1156 2.2422 -5.5556 -17.0505 -10.8536 -13.5156 1.5455 -11.5137 10.4395 1.9278 -6.1576 6.4511 0.0000 -0.0000 0.0000 -78.1783 20.0432 -5.2722 18.0174 -28.1794 -4.5574 -0.0000 -0.0000 21.0802 8.3505 18.6545 2.6881 -7.1250 0.0000 -0.0000 -19.0069 47.8715 -1.3940 0.0000 -0.0000 0.0000 -31.2284 26.5827 -62.6635 -122.3863 55.6398 -87.6368 0.0000 0.0000 15.3186 -48.9122 -21.0810 22.4159 7.1250 -0.0000 -0.0000 -24.1416 -58.7051 8.3989
0.00 0.00 0.00 -400.7020 -75.0973 406.4020 0.0000 0.0000 0.0000 -1.0876 -13.1579 -21.4827 4.1543 12.3630 37.0284 0.3419 -5.0064 -10.4587 0.6918 -5.3172 -14.8156 0.0000 0.0000 0.0000 37.5373 -4.2742 -6.1574 -0.5279 -4.6561 12.9304 -0.2734 -8.0300 -15.8863 -0.9448 -6.1905 17.3381 11.3439 4.0949 2.1946 -3.2810 5.9034 -5.4254 -10.2365 2.2913 -5.5296 -17.3434 -11.0965 -13.3272 2.0577 -11.8917 9.8135 2.1062 -6.2898 6.2963 -0.0000 0.0000 0.0000 -78.2557 19.6800 -3.2637 19.0887 -29.5287 -5.0745 -0.0000 -0.0000 20.5592 8.2430 18.3636 2.6132 -7.1250 0.0000 -0.0000 -18.9867 47.5807 -1.2519 -0.0000 0.0000 0.0000 -32.6285 27.7343 -63.3435 -104.7231 59.1649 -72.7148 0.0000 0.0000 14.7807 -46.5585 -20.4163 20.2214 7.1250 -0.0000 -0.0000 -20.7308 -57.1806 6.3713
0.00 0.00 0.00 -401.6310 -75.5392 407.5250 0.0000 0.0000 0.0000 -1.4737 -13.2983 -22.3130 3.5451 11.5291 34.0859 0.3685 -4.2514 -10.7977 0.7183 -5.4160 -15.0990 0.0000 0.0000 0.0000 37.6080 -4.0202 -5.4301 -0.5100 -4.5777 12.7079 -0.2864 -8.1579 -16.1919 -0.9402 -6.1759 17.2955 11.4540 4.1692 2.1364 -3.3660 5.9994 -5.4883 -10.3928 2.3287 -5.5228 -17.5790 -11.3242 -13.0864 2.5924 -12.2712 9.1515 2.2869 -6.4205 6.1233 0.0000 -0.0000 0.0000 -78.2419 19.5005 -1.1688 20.3108 -31.0150 -5.6906 -0.0000 -0.0000 19.8754 8.2766 18.0534 2.5812 -7.1250 0.0000 -0.0000 -18.8321 47.2908 -1.1020 0.0000 -0.0000 0.0000 -34.5637 28.8610 -64.5676 -83.1567 59.8223 -54.0771 0.0000 0.0000 14.6873 -43.6704 -20.1345 18.1910 7.1250 -0.0000 -0.0000 -17.0159 -56.0389 4.7044
0.00 0.00 0.00 -465.3940 -79.3993 471.9180 0.0000 0.0000 0.0000 -4.0046 -11.6128 -25.8685 1.7101 8.2341 23.4275 0.0043 0.9747 -1.9684 0.0044 -0.4308 -1.1836 0.0000 0.0000 0.0000 32.6673 -4.3360 0.1951 -3.2339 -11.0644 32.4973 -0.1690 2.9223 -7.3056 -0.0659 1.6557 -4.5552 9.9486 5.0734 0.1509 -3.9651 6.8729 -5.8187 -9.9910 2.8639 -4.5834 -18.9186 -12.7386 -8.8610 10.2330 -15.3148 -1.6662 4.9672 -7.3960 3.0837 -0.0000 -0.0000 0.0000 -75.0019 20.1663 5.2880 29.7519 -40.6797 -11.2475 -0.0000 -0.0000 18.6565 10.0682 18.1269 3.1619 -7.1250 0.0000 -0.0000 -17.2268 47.6018 -1.1380 -0.0000 -0.0000 0.0000 -15.2375 30.7638 -23.8118 -33.1377 43.4356 -13.5166 0.0000 0.0000 10.3079 -8.6149 -24.2503 3.5607 7.1250 -0.0000 -0.0000 21.4434 -53.1718 -4.4734
0.00 0.00 0.00 -477.1870 -80.5900 482.5960 0.0000 0.0000 0.0000 -8.1869 -9.4984 -22.5807 2.2063 9.2831 26.6851 0.1224 -0.8000 -6.3712 0.0023 -0.3088 -0.8484 0.0000 0.0000 0.0000 27.7948 -5.0542 -6.6811 -6.7113 -15.0839 47.7738 -0.1478 -4.9613 7.1765 -0.1466 -2.4672 6.7988 7.8656 4.2784 0.9387 -3.9642 5.7874 -5.2673 -8.8521 2.4172 -4.8697 -17.8325 -11.9929 -9.3790 9.0710 -14.2983 -2.7581 4.5991 -6.9000 2.5205 0.0000 -0.0000 0.0000 -76.3466 20.4350 4.6366 28.7348 -39.7840 -10.5906 -0.0000 -0.0000 24.8432 12.1389 18.2896 3.8616 -7.1250 0.0000 -0.0000 -15.3799 48.0444 -1.1813 0.0000 -0.0000 0.0000 -6.6647 24.0108 -11.0459 -55.0285 54.8327 -30.2393 0.0000 0.0000 13.8719 -11.3984 -19.7058 3.8890 7.1250 -0.0000 -0.0000 16.6177 -49.3136 -1.8127
0.00 0.00 0.00 -487.1210 -81.9799 491.6770 0.0000 0.0000 0.0000 -12.0883 -8.5291 -18.2261 2.1555 9.1828 26.3688 0.2660 -1.0956 -9.4181 0.0043 -0.4215 -1.1582 0.0000 0.0000 0.0000 24.2590 -5.1550 -13.8859 -10.0632 -17.4452 59.6994 0.3590 -15.2571 6.1996 -0.2279 -3.0725 8.4807 5.8162 3.2110 1.6352 -3.7488 4.3157 -4.7169 -7.4463 1.7806 -5.1246 -17.9117 -11.9706 -8.8684 9.4319 -14.3603 -4.2469 4.7901 -6.9191 2.0346 -0.0000 0.0000 0.0000 -76.9081 20.0661 8.5559 29.7520 -40.6799 -11.2476 -0.0000 -0.0000 23.4914 11.5496 18.9386 3.7945 -7.1250 0.0000 -0.0000 -16.1720 48.5926 -1.4685 -0.0000 0.0000 0.0000 -1.5697 19.2658 -2.5361 -79.4155 59.5724 -50.8467 0.0000 0.0000 13.0160 -11.8695 -15.5581 3.2265 7.1250 -0.0000 -0.0000 14.6958 -45.3353 -0.1243
0.00 0.00 0.00 -506.3130 -81.8511 509.9000 0.0000 0.0000 0.0000 -16.3827 -4.9314 -8.2347 1.3611 7.3844 20.8594 0.4540 -0.6620 -12.5153 0.0211 -0.9377 -2.5775 0.0000 0.0000 0.0000 20.9079 -0.1808 -25.8875 -10.5859 -17.7264 61.4291 0.7992 -16.0424 -10.0433 -0.2301 -3.0875 8.5225 3.8410 0.8124 1.7233 -2.1650 1.0999 -4.0599 -4.4745 0.3203 -5.0634 -19.2977 -14.1372 -6.2012 13.2830 -17.6226 -7.1552 6.0056 -8.5506 1.6863 0.0000 -0.0000 0.0000 -71.8934 18.8099 23.2911 45.6654 -51.0903 -22.7554 -0.0000 -0.0000 28.1050 14.1522 14.9265 3.7161 -7.1250 0.0000 -0.0000 -12.4478 44.9813 0.0058 0.0000 -0.0000 0.0000 -2.2476 20.1743 1.3599 -94.1091 59.9361 -63.5578 0.0000 0.0000 6.0045 -14.7207 -11.0315 2.8780 7.1250 -0.0000 -0.0000 10.9760 -41.1264 1.0630
0.00 0.00 0.00 -512.2010 -83.1408 516.0350 0.0000 0.0000 0.0000 -18.7770 -2.4583 -2.9670 0.8700 5.9472 16.6313 0.5026 0.4063 -13.5465 0.0808 -1.8339 -5.0468 0.0000 0.0000 0.0000 18.9855 1.7092 -30.5722 -6.5597 -14.9496 47.1888 0.4064 -14.4871 -15.1293 -0.0531 -1.4871 4.0902 3.0142 -0.5649 1.7886 -1.8490 -0.7737 -4.2658 -3.5614 -0.5865 -5.4939 -19.9210 -15.7996 -4.0428 16.9650 -20.1811 -8.9691 7.0302 -9.9171 1.7279 -0.0000 -0.0000 0.0000 -62.1101 9.1438 27.5911 78.2739 -59.4740 -49.8628 -0.0000 -0.0000 35.5774 21.7227 12.5208 4.9365 -7.1250 0.0000 -0.0000 -5.0573 43.3671 0.2044 -0.0000 -0.0000 0.0000 -9.9706 19.2010 -10.7572 -99.0476 59.6884 -67.8273 0.0000 0.0000 14.3306 -23.8244 -7.8059 3.4320 7.1250 -0.0000 -0.0000 2.5954 -38.4906 0.4164
0.00 0.00 0.00 -509.0790 -84.7909 513.5570 0.0000 0.0000 0.0000 -19.4556 -1.8045 -0.5067 0.6691 5.2311 14.5688 0.5348 0.4084 -13.9704 0.1085 -2.1244 -5.8495 0.0000 0.0000 0.0000 18.3024 2.2055 -31.6315 -3.7771 -11.8578 35.2306 0.4383 -14.2955 -14.1458 -0.0574 -1.5465 4.2538 2.8659 -1.5913 1.4339 -1.7704 -2.1814 -4.7436 -3.3007 -1.3003 -5.9074 -19.7825 -15.9477 -3.4129 17.3963 -20.4883 -9.3346 7.1579 -10.1053 1.6208 0.0000 -0.0000 0.0000 -54.7751 -3.8101 25.2757 101.9270 -59.4556 -70.3102 -0.0000 -0.0000 26.1014 22.6625 13.9869 5.7627 -7.1250 0.0000 -0.0000 -4.4552 45.0387 -0.0043 0.0000 -0.0000 0.0000 -15.1576 18.1394 -18.4585 -106.8667 58.8973 -74.5529 0.0000 0.0000 5.7679 -23.1866 -8.8255 3.7598 7.1250 -0.0000 -0.0000 3.2488 -39.5471 0.4371
0.00 0.00 0.00 -505.1960 -86.2946 510.1450 0.0000 0.0000 0.0000 -19.2286 -1.2517 1.7438 0.6113 5.0041 13.9201 0.5936 -1.7130 -14.0666 0.2154 -2.9876 -8.2442 0.0000 0.0000 0.0000 17.3016 5.5189 -29.7642 -1.3619 -7.3867 20.8660 0.4593 -13.0609 -10.5701 -0.0069 0.5381 -1.4787 2.0677 -2.8772 1.4239 -1.5948 -3.9634 -5.3300 -2.5233 -2.1661 -6.5995 -19.3108 -15.2267 -4.6475 16.0849 -19.3401 -8.8026 6.7696 -9.4837 1.5641 0.0000 0.0000 0.0000 -43.3876 -23.4365 15.2260 119.1498 -56.5323 -84.9506 -0.0000 -0.0000 16.1017 26.7667 16.0995 7.9626 -7.1250 0.0000 -0.0000 -0.9434 47.8916 -0.0673 0.0000 0.0000 0.0000 -20.6969 17.4553 -27.6909 -113.7189 57.7637 -80.3869 0.0000 0.0000 4.3361 -25.5951 -9.1741 4.3673 7.1250 -0.0000 -0.0000 1.1795 -40.1295 0.1416
0.00 0.00 0.00 -511.2620 -86.4387 516.3130 0.0000 0.0000 0.0000 -18.9334 -0.7452 3.5246 0.6685 5.2287 14.5620 0.6202 -2.8011 -14.1854 0.4330 -4.2227 -11.7041 0.0000 0.0000 0.0000 17.2481 8.4518 -27.9855 -0.5663 -4.8196 13.3946 0.5103 -12.7534 -7.2218 -0.2014 2.8895 -7.9712 1.1419 -3.7409 1.6182 -1.5641 -5.1920 -5.7218 -1.8504 -2.7374 -7.1217 -18.2609 -13.9540 -6.7301 13.9040 -17.3717 -7.9539 6.0784 -8.4506 1.4828 0.0000 0.0000 0.0000 -26.5919 -39.2165 -0.4994 122.6917 -55.5490 -87.8887 -0.0000 -0.0000 17.3580 31.5364 16.4292 9.8465 -7.1250 0.0000 -0.0000 3.6941 49.0283 0.3675 0.0000 0.0000 0.0000 -24.8913 16.1966 -33.9209 -117.3580 56.9738 -83.4520 0.0000 0.0000 8.5751 -28.4803 -8.3287 4.4933 7.1250 -0.0000 -0.0000 -1.4041 -39.4319 -0.1927
0.00 0.00 0.00 -535.7970 -83.3087 540.8530 0.0000 0.0000 0.0000 -19.7596 0.5505 6.2123 1.0108 6.3970 17.9408 0.5304 -2.4440 -13.1352 1.4066 -7.5018 -21.2107 0.0000 0.0000 0.0000 20.7894 7.3924 -28.3159 -0.9397 -6.1745 17.2915 0.3201 -10.9549 0.8301 -0.2380 -3.1396 8.6677 -1.3024 -4.7910 1.5513 -1.3300 -6.8138 -6.7736 -0.0857 -3.4094 -7.9785 -17.0475 -10.7117 -10.8860 10.3198 -12.5330 -6.1497 5.0881 -5.9979 1.5593 -0.0000 -0.0000 0.0000 11.9460 -50.4944 -35.5433 114.7115 -57.5619 -81.2256 -0.0000 -0.0000 15.8871 34.2581 11.5935 7.7939 -7.1250 0.0000 -0.0000 6.5304 43.8228 -0.1906 -0.0000 -0.0000 0.0000 -31.3795 14.0931 -40.0140 -121.4871 55.9005 -86.8934 0.0000 0.0000 8.2602 -29.0095 -7.6969 4.2475 7.1250 -0.0000 -0.0000 -1.8904 -38.7582 -0.2908
0.00 0.00 0.00 -526.8130 -75.1788 532.4070 0.0000 0.0000 0.0000 -15.9213 3.1839 5.8689 2.6073 10.0304 29.0752 0.0002 -0.4138 0.6504 2.6528 -10.1106 -29.3355 0.0000 0.0000 0.0000 28.0098 8.1244 -21.0484 -1.5449 -7.8457 22.2465 -0.0430 -0.3193 -4.0446 -1.1861 -6.9115 19.4535 1.3183 -5.7510 -0.8168 0.8218 -8.0185 -8.6102 0.7030 -4.1708 -8.6575 -16.3949 -10.9300 -12.3159 8.7629 -12.7452 -6.5195 4.4529 -6.1331 1.5105 0.0000 -0.0000 0.0000 24.8823 -47.8654 -45.8901 119.2993 -56.4938 -85.0753 -0.0000 -0.0000 14.4699 36.5878 8.7223 6.4228 -7.1250 0.0000 -0.0000 8.5730 40.6491 -0.9275 0.0000 -0.0000 0.0000 -33.8031 15.2311 -44.8842 -129.0244 53.3815 -93.0448 0.0000 0.0000 4.1589 -29.3819 -8.1740 4.5771 7.1250 -0.0000 -0.0000 -2.1981 -39.3314 -0.3072
0.00 0.00 0.00 -522.0800 -72.5774 527.5890 0.0000 0.0000 0.0000 -11.4274 5.3370 0.6066 4.7724 13.1228 39.8301 0.7817 1.9488 16.1574 0.5154 -4.6015 -12.7752 0.0000 0.0000 0.0000 31.2575 5.0152 -17.0056 -1.5915 -7.9576 22.5855 -0.1064 4.4139 -6.1443 -1.2856 -7.1848 20.2640 3.0761 -5.8750 -0.2091 1.5140 -8.0598 -8.6115 0.5675 -4.2857 -9.1705 -17.2240 -11.8582 -11.0335 10.8122 -14.1311 -8.7472 5.1847 -6.8143 1.0417 -0.0000 0.0000 0.0000 24.7510 -47.7111 -47.1788 120.2950 -56.2308 -85.9042 -0.0000 -0.0000 14.3310 36.2147 8.6173 6.2615 -7.1250 0.0000 -0.0000 8.2336 40.4826 -0.9242 -0.0000 0.0000 0.0000 -32.8061 14.3119 -44.9366 -129.7753 53.0857 -93.6463 0.0000 0.0000 4.7652 -30.9614 -8.5930 5.1223 7.1250 -0.0000 -0.0000 -3.5729 -39.9492 -0.4455
0.00 0.00 0.00 -516.9970 -71.3690 522.8210 0.0000 0.0000 0.0000 -6.0490 6.1791 -10.7207 8.5197 16.4885 54.4136 0.0445 0.2018 3.9139 0.4824 -4.4538 -12.3570 0.0000 0.0000 0.0000 33.8761 2.6138 -12.4679 -1.4456 -7.6007 21.5076 -0.2064 5.0107 -8.2877 -1.3396 -7.3283 20.6917 5.4947 -5.3364 1.3258 1.4755 -7.0745 -7.9363 -0.7375 -3.9413 -9.6381 -15.8558 -11.0090 -12.3339 9.1264 -12.9610 -7.1465 4.4840 -6.2581 1.3489 -0.0000 -0.0000 0.0000 23.1267 -47.6620 -46.8924 110.4822 -58.3539 -77.6401 -0.0000 -0.0000 14.9919 34.3449 8.8883 6.0268 -7.1250 0.0000 -0.0000 6.5745 40.6186 -0.7138 -0.0000 -0.0000 0.0000 -32.3377 12.9897 -42.9194 -119.0330 56.5621 -84.8531 0.0000 0.0000 7.4692 -33.9163 -9.3885 6.2594 7.1250 -0.0000 -0.0000 -6.2000 -41.1692 -0.5883
